<svg width="765" height="185" viewBox="0 0 765 185" fill="none" xmlns="http://www.w3.org/2000/svg">
<g clip-path="url(#clip0_21_2)">
<path d="M222.219 121.163C237.553 121.163 246.877 112.002 246.877 96.3886V86.1877C240.454 88.8941 232.994 91.1841 224.913 92.8495C213.931 94.9314 208.336 100.136 208.336 108.255C208.958 116.999 213.517 121.163 222.219 121.163ZM228.643 52.4621C218.904 52.4621 213.517 54.9603 212.066 60.1648H184.506C187.821 39.7629 202.12 29.7702 227.4 29.7702C257.652 29.7702 272.986 39.7629 273.608 60.1648V97.6377C273.608 128.033 255.373 141.565 225.742 143.646C199.426 145.728 181.191 133.446 181.191 109.088C181.812 82.6485 200.877 75.5704 228.643 72.864C240.454 71.4067 246.463 67.8677 246.463 61.8303C245.841 55.5848 240.04 52.4621 228.643 52.4621Z" fill="white"/>
<path d="M365.924 31.4356H387.266L348.518 141.565H319.3L280.759 31.4356H311.219L333.392 108.671L352.455 41.2201C354.527 34.7665 359.086 31.4356 365.924 31.4356Z" fill="white"/>
<path d="M408.964 161.134H416.631C431.757 161.134 437.144 153.639 432.793 139.066L395.495 31.4356H426.784L448.541 107.839L467.604 41.2201C469.262 34.7665 473.613 31.4356 480.658 31.4356H499.929L456.622 160.301C449.991 178.413 443.361 184.658 420.568 184.658C413.522 184.658 409.793 184.45 408.964 183.825V161.134Z" fill="white"/>
<path d="M606.159 141.565H592.069C582.951 140.94 578.393 136.568 578.393 127.825V71.1986C577.771 59.7485 571.555 54.1276 559.329 54.1276C547.104 54.1276 540.888 59.7485 540.68 71.1986V141.565H512.707V76.8195C512.707 45.3838 528.455 29.7702 559.744 29.7702C591.032 29.7702 606.366 45.3838 606.159 76.8195V141.565Z" fill="white"/>
<path d="M662.674 37.4729C662.674 45.3838 656.665 51.213 648.999 51.213H646.098V112.211C646.098 116.791 648.791 119.289 654.179 119.289H662.674V140.315C653.764 141.148 644.026 141.148 633.665 140.107C623.305 139.066 618.331 132.613 618.539 120.33V0H632.836C640.089 0 646.098 6.66185 646.098 13.9483V31.4356H662.674V37.4729Z" fill="white"/>
<path d="M712.727 121.163C728.062 121.163 737.386 112.002 737.386 96.3886V86.1877C730.963 88.8941 723.503 91.1841 715.422 92.8495C704.438 94.9314 698.844 100.136 698.844 108.255C699.465 116.999 704.024 121.163 712.727 121.163ZM719.152 52.4621C709.411 52.4621 704.024 54.9603 702.574 60.1648H675.015C678.33 39.7629 692.628 29.7702 717.908 29.7702C748.161 29.7702 763.494 39.7629 764.116 60.1648V97.6377C764.116 128.033 745.882 141.565 716.251 143.646C689.934 145.728 671.699 133.446 671.699 109.088C672.321 82.6485 691.384 75.5704 719.152 72.864C730.963 71.4067 736.972 67.8677 736.972 61.8303C736.35 55.5848 730.548 52.4621 719.152 52.4621Z" fill="white"/>
<mask id="mask0_21_2" style="mask-type:luminance" maskUnits="userSpaceOnUse" x="0" y="20" width="154" height="120">
<path d="M153.124 20.2236H0V139.186H153.124V20.2236Z" fill="white"/>
</mask>
<g mask="url(#mask0_21_2)">
<path d="M34.0063 139.185L70.5703 20.2236H36.5639L18.9451 77.4797V77.6106L0 139.185H34.0063Z" fill="#F86F8C"/>
<path d="M80.7771 20.2236L44.2131 139.185H78.2195L114.783 20.2236H80.7771ZM103.641 88.7454L112.771 118.486V118.628L119.105 139.209H153.088L120.644 33.452L103.641 88.7454Z" fill="#38B899"/>
</g>
</g>
<defs>
<clipPath id="clip0_21_2">
<rect width="764.453" height="184.658" fill="white"/>
</clipPath>
</defs>
</svg>
